<?xml version="1.0" encoding="UTF-8"?> <svg xmlns="http://www.w3.org/2000/svg" width="40" height="40" viewBox="0 0 40 40" fill="none"><path fill-rule="evenodd" clip-rule="evenodd" d="M20.4297 39.8859C16.5042 39.8859 14.68 39.3103 11.509 37.0081C9.50332 39.5981 3.15185 41.6221 2.87487 38.1592C2.87487 35.5596 2.30181 33.3629 1.65234 30.9648C0.878698 28.0103 0 24.72 0 19.9525C0 8.56616 9.30274 0 20.3247 0C31.3562 0 39.9999 8.98823 39.9999 20.058C40.0177 25.2923 37.967 30.3198 34.298 34.0371C30.6289 37.7545 25.6413 39.8579 20.4297 39.8859ZM20.5921 9.84196C15.2244 9.56378 11.041 13.2953 10.1146 19.1467C9.3505 23.991 10.7068 29.8904 11.8624 30.1974C12.4164 30.3317 13.8108 29.1997 14.68 28.3268C16.1172 29.324 17.7908 29.9229 19.5319 30.0631C22.2055 30.1922 24.8229 29.2628 26.8214 27.4744C28.8199 25.686 30.0401 23.1816 30.2196 20.4993C30.3241 17.8115 29.3739 15.1899 27.5734 13.1986C25.7728 11.2072 23.266 10.0054 20.5921 9.85156V9.84196Z" fill="white"></path></svg> 