<svg width="32" height="32" viewBox="0 0 32 32" fill="none" xmlns="http://www.w3.org/2000/svg">
<path d="M10.7747 27.6387C10.0911 27.6387 9.5533 27.4473 9.16138 27.0645C8.76945 26.6908 8.57349 26.1439 8.57349 25.4238V25.1641C8.57349 24.3802 8.75122 23.5964 9.10669 22.8125C9.46216 22.0195 9.90877 21.2585 10.4465 20.5293C10.9934 19.8001 11.554 19.1348 12.1282 18.5332C12.7115 17.9225 13.2174 17.3984 13.6458 16.9609C14.0924 16.5143 14.3066 16.0677 14.2883 15.6211C14.2701 15.1654 14.0559 14.7324 13.6458 14.3223C13.2174 13.8848 12.7115 13.3652 12.1282 12.7637C11.554 12.153 10.9934 11.4876 10.4465 10.7676C9.90877 10.0384 9.46216 9.2819 9.10669 8.49805C8.75122 7.70508 8.57349 6.91211 8.57349 6.11914V5.90039C8.57349 5.18034 8.76945 4.63346 9.16138 4.25977C9.5533 3.87695 10.0911 3.68555 10.7747 3.68555H21.6985C22.373 3.68555 22.9062 3.87695 23.2981 4.25977C23.69 4.63346 23.886 5.18034 23.886 5.90039V6.11914C23.886 6.91211 23.7083 7.70508 23.3528 8.49805C22.9973 9.2819 22.5461 10.0384 21.9993 10.7676C21.4615 11.4876 20.9055 12.153 20.3313 12.7637C19.7571 13.3652 19.2512 13.8848 18.8137 14.3223C18.3762 14.7689 18.162 15.2201 18.1711 15.6758C18.1894 16.1224 18.4036 16.5508 18.8137 16.9609C19.2512 17.3984 19.7571 17.9225 20.3313 18.5332C20.9055 19.1348 21.4615 19.8001 21.9993 20.5293C22.5461 21.2585 22.9973 22.0195 23.3528 22.8125C23.7083 23.5964 23.886 24.3802 23.886 25.1641V25.4238C23.886 26.1439 23.69 26.6908 23.2981 27.0645C22.9062 27.4473 22.373 27.6387 21.6985 27.6387H10.7747ZM11.8137 25.7383H20.6458C20.9374 25.7383 21.1152 25.6107 21.179 25.3555C21.2428 25.1003 21.179 24.8815 20.9875 24.6992L16.886 20.7891C16.4576 20.3607 16.0201 20.3607 15.5735 20.7891L11.4856 24.6992C11.2942 24.8815 11.2304 25.1003 11.2942 25.3555C11.358 25.6107 11.5312 25.7383 11.8137 25.7383Z" fill="white"/>
</svg>
