<svg width="32" height="32" viewBox="0 0 32 32" fill="none" xmlns="http://www.w3.org/2000/svg">
<path d="M9.64204 23.4902C9.97563 23.4629 10.272 23.3202 10.5297 23.0624L13.8315 19.7597C13.8268 19.7573 13.8225 19.7543 13.8178 19.7519L15.9604 17.6142L20.7006 22.3661C20.7042 22.3597 20.7087 22.3531 20.7124 22.3466L21.4125 23.0468C21.6703 23.3046 21.9633 23.4496 22.2915 23.4824C22.6315 23.5161 22.9138 23.4215 23.1381 23.1972C23.3625 22.9729 23.4547 22.693 23.4155 22.3583C23.3882 22.0248 23.2455 21.7293 22.9877 21.4716L19.686 18.1689C19.6835 18.1737 19.6797 18.1787 19.6772 18.1835L17.5385 16.04L22.9877 10.6035C23.2454 10.3457 23.3915 10.0469 23.4252 9.70697C23.4579 9.37887 23.3624 9.10215 23.1381 8.87787C22.9139 8.65365 22.6347 8.55484 22.3012 8.58197C21.9667 8.62114 21.6703 8.77057 21.4125 9.02826L15.9643 14.4619L10.5297 9.01263C10.272 8.75494 9.9723 8.60883 9.63227 8.57513C9.30435 8.54258 9.02834 8.63903 8.80415 8.86322C8.57992 9.08749 8.48104 9.36659 8.50825 9.70013C8.54748 10.0346 8.69596 10.3311 8.95356 10.5888L14.3862 16.0361L9.63423 20.7753C9.64065 20.7789 9.64736 20.7825 9.65376 20.7861L8.95356 21.4863C8.6959 21.7439 8.55085 22.0372 8.51802 22.3652C8.48431 22.7053 8.57982 22.9875 8.80415 23.2119C9.02842 23.4361 9.30752 23.5293 9.64204 23.4902Z" fill="white"/>
</svg>
