<svg width="32" height="32" viewBox="0 0 32 32" fill="none" xmlns="http://www.w3.org/2000/svg">
<path fill-rule="evenodd" clip-rule="evenodd" d="M26.6172 4.80005C27.166 4.80015 27.5771 5.05714 27.8516 5.57056C28.2766 6.4117 28.7106 7.06711 29.1533 7.53638C29.6048 7.99667 30.1893 8.39914 30.9062 8.74438C31.1719 8.86834 31.3673 9.03677 31.4912 9.24927C31.6151 9.45286 31.6767 9.70517 31.6768 10.0061V21.6409C31.6767 21.9418 31.6151 22.1989 31.4912 22.4114C31.3672 22.6149 31.1718 22.7787 30.9062 22.9026C30.1893 23.2479 29.6048 23.6551 29.1533 24.1243C28.7107 24.5847 28.2765 25.2354 27.8516 26.0764C27.5771 26.5898 27.166 26.8468 26.6172 26.8469H5.39355C4.83574 26.8469 4.41901 26.59 4.14453 26.0764C3.71959 25.2354 3.28158 24.5846 2.83008 24.1243C2.38738 23.655 1.81182 23.2479 1.10352 22.9026C0.837994 22.7787 0.638672 22.6149 0.505859 22.4114C0.381928 22.1989 0.320339 21.9418 0.320312 21.6409V10.0061C0.320339 9.70516 0.381942 9.45286 0.505859 9.24927C0.638672 9.03677 0.837891 8.86834 1.10352 8.74438C1.81172 8.39913 2.3874 7.99669 2.83008 7.53638C3.28158 7.06717 3.71959 6.41154 4.14453 5.57056C4.41901 5.05701 4.83574 4.80005 5.39355 4.80005H26.6172ZM11.7354 16.8752C11.5672 16.8752 11.4478 16.9901 11.377 17.22C11.2531 17.8306 11.151 18.2736 11.0713 18.5481C10.9916 18.8225 10.8145 19.0179 10.54 19.1331C10.2744 19.2393 9.79609 19.35 9.10547 19.4651C8.90184 19.5005 8.7998 19.6247 8.7998 19.8372C8.79995 20.0317 8.91545 20.1513 9.14551 20.1956C9.81797 20.2929 10.2871 20.3989 10.5527 20.5139C10.8184 20.6202 10.9916 20.8107 11.0713 21.0852C11.151 21.3685 11.253 21.82 11.377 22.4397C11.4478 22.6611 11.5671 22.7717 11.7354 22.7717C11.9389 22.7717 12.067 22.6696 12.1201 22.4661C12.2263 21.8379 12.3236 21.3822 12.4121 21.0989C12.5007 20.8155 12.6826 20.6202 12.957 20.5139C13.2315 20.3988 13.7099 20.2929 14.3916 20.1956C14.595 20.1513 14.6971 20.0317 14.6973 19.8372C14.6973 19.6247 14.5951 19.5006 14.3916 19.4651C13.7187 19.35 13.2404 19.2393 12.957 19.1331C12.6826 19.0268 12.5007 18.8362 12.4121 18.5618C12.3236 18.2784 12.2264 17.8308 12.1201 17.22C12.0669 16.9901 11.9388 16.8753 11.7354 16.8752ZM16.8887 8.80005C16.6231 8.80005 16.4547 8.94168 16.3838 9.22485C16.2422 9.995 16.1045 10.6458 15.9717 11.177C15.8389 11.6994 15.6704 12.1383 15.4668 12.4924C15.2632 12.8464 14.9936 13.1344 14.6572 13.3557C14.3208 13.5682 13.8867 13.7453 13.3555 13.887C12.8331 14.0198 12.1824 14.1391 11.4033 14.2454C11.1023 14.2896 10.9512 14.4494 10.9512 14.7239C10.9513 15.007 11.1024 15.1708 11.4033 15.2151C12.386 15.3125 13.1744 15.454 13.7676 15.6399C14.3606 15.8258 14.8209 16.0963 15.1484 16.4504C15.4759 16.8046 15.7282 17.2869 15.9053 17.8977C16.0824 18.4998 16.2421 19.2745 16.3838 20.2219C16.4281 20.5052 16.5965 20.6467 16.8887 20.6467C17.1451 20.6466 17.3004 20.5097 17.3535 20.2356C17.5306 19.2882 17.7077 18.5173 17.8848 17.9241C18.0707 17.3221 18.3229 16.8484 18.6416 16.5032C18.9603 16.1491 19.4118 15.8785 19.9961 15.6926C20.5893 15.5067 21.3729 15.3479 22.3467 15.2151C22.6476 15.1797 22.7987 15.0158 22.7988 14.7239C22.7988 14.4494 22.6477 14.2896 22.3467 14.2454C21.5676 14.1391 20.9121 14.0198 20.3809 13.887C19.8498 13.7453 19.4116 13.5634 19.0664 13.342C18.73 13.1118 18.4556 12.824 18.2432 12.4788C18.0307 12.1246 17.8574 11.6866 17.7246 11.1643C17.6007 10.6331 17.4775 9.99103 17.3535 9.23853C17.3093 8.94648 17.1541 8.80019 16.8887 8.80005Z" fill="white"/>
</svg>
