<svg width="32" height="32" viewBox="0 0 32 32" fill="none" xmlns="http://www.w3.org/2000/svg">
<path d="M10.1185 30.1562C8.35942 30.1562 7.0059 29.6823 6.05798 28.7344C5.11007 27.7865 4.63611 26.4329 4.63611 24.6738V14.707C4.63611 12.9479 5.11007 11.5944 6.05798 10.6465C7.0059 9.69857 8.35942 9.22461 10.1185 9.22461H12.6752V11.5488H10.1595C9.13871 11.5488 8.3503 11.8268 7.79431 12.3828C7.24744 12.9297 6.974 13.7181 6.974 14.748V24.6328C6.974 25.6536 7.24744 26.4375 7.79431 26.9844C8.3503 27.5404 9.13871 27.8184 10.1595 27.8184H22.2865C23.3164 27.8184 24.1094 27.5404 24.6654 26.9844C25.2214 26.4375 25.4994 25.6536 25.4994 24.6328V14.748C25.4994 13.7181 25.2214 12.9297 24.6654 12.3828C24.1094 11.8268 23.3164 11.5488 22.2865 11.5488H19.7709V9.22461H22.3275C24.0957 9.22461 25.4493 9.69857 26.3881 10.6465C27.336 11.5944 27.8099 12.9479 27.8099 14.707V24.6738C27.8099 26.4329 27.336 27.7865 26.3881 28.7344C25.4493 29.6823 24.0957 30.1562 22.3275 30.1562H10.1185ZM16.2299 2.36133C16.5306 2.36133 16.7904 2.4707 17.0092 2.68945C17.237 2.89909 17.351 3.14974 17.351 3.44141V16.4707L17.1595 20.0801C17.1413 20.3353 17.0456 20.5586 16.8724 20.75C16.6993 20.9323 16.4851 21.0234 16.2299 21.0234C15.9747 21.0234 15.7605 20.9323 15.5873 20.75C15.4141 20.5586 15.3184 20.3353 15.3002 20.0801L15.1224 16.4707V3.44141C15.1224 3.14974 15.2273 2.89909 15.4369 2.68945C15.6556 2.4707 15.92 2.36133 16.2299 2.36133ZM11.8138 15.2266C12.1237 15.2266 12.3789 15.3405 12.5795 15.5684L14.4935 17.6055L16.2299 19.5879L17.9525 17.6055L19.8666 15.5684C20.0671 15.3405 20.3223 15.2266 20.6322 15.2266C20.9148 15.2266 21.1517 15.3223 21.3431 15.5137C21.5437 15.696 21.6439 15.9284 21.6439 16.2109C21.6439 16.4753 21.5345 16.7168 21.3158 16.9355L17.0638 21.0371C16.918 21.1738 16.7767 21.2695 16.64 21.3242C16.5124 21.3789 16.3757 21.4062 16.2299 21.4062C16.084 21.4062 15.9427 21.3789 15.806 21.3242C15.6693 21.2695 15.5326 21.1738 15.3959 21.0371L11.1302 16.9355C10.9206 16.7168 10.8158 16.4753 10.8158 16.2109C10.8158 15.9284 10.9115 15.696 11.1029 15.5137C11.2943 15.3223 11.5313 15.2266 11.8138 15.2266Z" fill="white"/>
</svg>
