<svg width="32" height="32" viewBox="0 0 32 32" fill="none" xmlns="http://www.w3.org/2000/svg">
<path d="M3.66248 13.4047C3.66248 12.0058 3.92367 10.6953 4.44607 9.47346C4.96847 8.24273 5.69451 7.16695 6.62419 6.24612C7.55388 5.31643 8.62966 4.59039 9.85154 4.06799C11.0734 3.53674 12.3838 3.27112 13.7828 3.27112C15.1906 3.27112 16.5054 3.53674 17.7273 4.06799C18.9492 4.59039 20.025 5.31643 20.9547 6.24612C21.8844 7.16695 22.6104 8.24273 23.1328 9.47346C23.6552 10.6953 23.9164 12.0058 23.9164 13.4047C23.9164 14.5203 23.7437 15.5873 23.3984 16.6055C23.0531 17.6149 22.5661 18.5357 21.9375 19.368L27.8742 25.318C28.0247 25.4862 28.1398 25.6722 28.2195 25.8758C28.2992 26.0795 28.339 26.2875 28.339 26.5C28.339 26.8276 28.2682 27.1154 28.1265 27.3633C27.9849 27.6201 27.7901 27.8193 27.5422 27.961C27.2942 28.1115 27.0109 28.1867 26.6922 28.1867C26.4708 28.1867 26.2539 28.1469 26.0414 28.0672C25.8289 27.9964 25.6429 27.8813 25.4836 27.7219L19.507 21.7321C18.6924 22.2987 17.8026 22.7414 16.8375 23.0602C15.8724 23.3789 14.8541 23.5383 13.7828 23.5383C12.3838 23.5383 11.0734 23.2771 9.85154 22.7547C8.62966 22.2323 7.55388 21.5063 6.62419 20.5766C5.69451 19.6469 4.96847 18.5711 4.44607 17.3492C3.92367 16.1185 3.66248 14.8037 3.66248 13.4047ZM6.0531 13.4047C6.0531 14.4761 6.25232 15.481 6.65076 16.4196C7.04919 17.3492 7.60258 18.1683 8.31091 18.8766C9.0281 19.5849 9.85154 20.1383 10.7812 20.5367C11.7109 20.9352 12.7114 21.1344 13.7828 21.1344C14.8541 21.1344 15.8547 20.9352 16.7844 20.5367C17.7229 20.1383 18.5463 19.5849 19.2547 18.8766C19.963 18.1683 20.5164 17.3492 20.9148 16.4196C21.3133 15.481 21.5125 14.4761 21.5125 13.4047C21.5125 12.3334 21.3133 11.3328 20.9148 10.4031C20.5164 9.46461 19.963 8.64117 19.2547 7.93284C18.5463 7.2245 17.7229 6.67112 16.7844 6.27268C15.8547 5.87424 14.8541 5.67502 13.7828 5.67502C12.7114 5.67502 11.7109 5.87424 10.7812 6.27268C9.85154 6.67112 9.0281 7.2245 8.31091 7.93284C7.60258 8.64117 7.04919 9.46461 6.65076 10.4031C6.25232 11.3328 6.0531 12.3334 6.0531 13.4047ZM13.8094 18.5977C13.6942 18.5977 13.5969 18.5623 13.5172 18.4914C13.4375 18.4117 13.3888 18.3188 13.3711 18.2125C13.2471 17.3802 13.1099 16.6985 12.9594 16.1672C12.8088 15.636 12.5875 15.2198 12.2953 14.9188C12.0031 14.6089 11.5958 14.3742 11.0734 14.2149C10.551 14.0466 9.86039 13.9138 9.00154 13.8164C8.73591 13.781 8.6031 13.6438 8.6031 13.4047C8.6031 13.1568 8.73591 13.0107 9.00154 12.9664C9.86925 12.8513 10.5554 12.7141 11.0601 12.5547C11.5737 12.3865 11.9677 12.1518 12.2422 11.8508C12.5255 11.5498 12.7469 11.1425 12.9062 10.6289C13.0656 10.1065 13.2205 9.42476 13.3711 8.58362C13.4242 8.32685 13.5703 8.19846 13.8094 8.19846C14.0484 8.19846 14.1901 8.33127 14.2344 8.5969C14.3583 9.41148 14.4955 10.08 14.6461 10.6024C14.8054 11.1248 15.0312 11.5365 15.3234 11.8375C15.6156 12.1386 16.0229 12.3732 16.5453 12.5414C17.0677 12.7097 17.7539 12.8513 18.6039 12.9664C18.8695 13.0107 19.0023 13.1568 19.0023 13.4047C19.0023 13.6526 18.8695 13.7899 18.6039 13.8164C17.745 13.9404 17.0588 14.0865 16.5453 14.2547C16.0317 14.4141 15.6333 14.6487 15.35 14.9586C15.0755 15.2597 14.8586 15.6714 14.6992 16.1938C14.5487 16.7162 14.3937 17.3935 14.2344 18.2258C14.1724 18.4737 14.0307 18.5977 13.8094 18.5977Z" fill="white"/>
</svg>
