<svg width="32" height="32" viewBox="0 0 32 32" fill="none" xmlns="http://www.w3.org/2000/svg">
<path d="M26.3154 22.65C26.68 22.65 26.9899 22.7777 27.2451 23.0328C27.5094 23.2789 27.6416 23.5888 27.6416 23.9625C27.6416 24.3362 27.5094 24.6507 27.2451 24.9059C26.9899 25.1519 26.68 25.275 26.3154 25.275H22.3242C22.3262 25.2835 22.329 25.292 22.3311 25.3004L5.69629 25.275C5.33181 25.275 5.01719 25.1519 4.75293 24.9059C4.4978 24.6507 4.37012 24.3362 4.37012 23.9625C4.37012 23.5889 4.49781 23.2789 4.75293 23.0328C5.01719 22.7777 5.33181 22.6501 5.69629 22.65L18.6514 22.6715C18.6495 22.6644 18.6474 22.6571 18.6455 22.65H26.3154Z" fill="white"/>
<path d="M26.3154 14.65C26.68 14.65 26.9899 14.7777 27.2451 15.0328C27.5094 15.2789 27.6416 15.5888 27.6416 15.9625C27.6416 16.3362 27.5094 16.6507 27.2451 16.9059C26.9899 17.1519 26.68 17.275 26.3154 17.275H22.3252C22.3272 17.2834 22.329 17.292 22.3311 17.3004L5.69629 17.275C5.33181 17.275 5.01719 17.1519 4.75293 16.9059C4.4978 16.6507 4.37012 16.3362 4.37012 15.9625C4.37012 15.5889 4.49781 15.2789 4.75293 15.0328C5.01719 14.7777 5.33181 14.6501 5.69629 14.65L18.6494 14.6686C18.6478 14.6625 18.6472 14.6561 18.6455 14.65H26.3154Z" fill="white"/>
<path d="M26.3154 6.65002C26.68 6.65002 26.9899 6.77771 27.2451 7.03284C27.5094 7.27893 27.6416 7.58883 27.6416 7.96252C27.6416 8.33622 27.5094 8.65068 27.2451 8.90588C26.9899 9.1519 26.68 9.27502 26.3154 9.27502H22.3252C22.3272 9.28341 22.329 9.29202 22.3311 9.30042L5.69629 9.27502C5.33181 9.27497 5.01719 9.15192 4.75293 8.90588C4.4978 8.6507 4.37012 8.33616 4.37012 7.96252C4.37012 7.58889 4.49781 7.27891 4.75293 7.03284C5.01719 6.77769 5.33181 6.65008 5.69629 6.65002L18.6494 6.66858C18.6478 6.6625 18.6472 6.65609 18.6455 6.65002H26.3154Z" fill="white"/>
</svg>
