<svg width="32" height="32" viewBox="0 0 32 32" fill="none" xmlns="http://www.w3.org/2000/svg">
<path d="M11.2258 6.29688C11.2258 5.3763 11.4491 4.53776 11.8958 3.78125C12.3515 3.02474 12.953 2.42318 13.7004 1.97656C14.457 1.52083 15.2955 1.29297 16.2161 1.29297C17.1458 1.29297 17.9843 1.52083 18.7317 1.97656C19.4882 2.42318 20.0898 3.02474 20.5364 3.78125C20.983 4.53776 21.2063 5.3763 21.2063 6.29688C21.2063 7.07161 21.0468 7.79167 20.7278 8.45703C20.4088 9.1224 19.9667 9.6875 19.4016 10.1523C18.8456 10.6172 18.2122 10.9453 17.5012 11.1367V19.2988C17.5012 20.5202 17.4329 21.5638 17.2961 22.4297C17.1594 23.2865 16.9908 23.9427 16.7903 24.3984C16.5898 24.8542 16.3984 25.082 16.2161 25.082C16.0338 25.082 15.8424 24.8542 15.6418 24.3984C15.4413 23.9336 15.2727 23.2728 15.136 22.416C14.9993 21.5592 14.9309 20.5202 14.9309 19.2988V11.1367C14.22 10.9453 13.582 10.6172 13.0168 10.1523C12.4609 9.67839 12.0234 9.11328 11.7043 8.45703C11.3853 7.79167 11.2258 7.07161 11.2258 6.29688ZM14.7942 6.55664C15.2681 6.55664 15.6737 6.38802 16.011 6.05078C16.3482 5.70443 16.5168 5.30339 16.5168 4.84766C16.5168 4.39193 16.3482 3.99544 16.011 3.6582C15.6737 3.32096 15.2681 3.15234 14.7942 3.15234C14.3476 3.15234 13.9511 3.32096 13.6047 3.6582C13.2675 3.99544 13.0989 4.39193 13.0989 4.84766C13.0989 5.30339 13.2675 5.70443 13.6047 6.05078C13.9511 6.38802 14.3476 6.55664 14.7942 6.55664ZM16.2297 29.9902C14.2245 29.9902 12.4335 29.8353 10.8567 29.5254C9.28898 29.2155 7.95825 28.7917 6.8645 28.2539C5.77075 27.7161 4.93677 27.1009 4.36255 26.4082C3.79744 25.7246 3.51489 25.0046 3.51489 24.248C3.51489 23.3913 3.81112 22.6165 4.40356 21.9238C4.99601 21.2311 5.76164 20.6387 6.70044 20.1465C7.63924 19.6452 8.64185 19.2578 9.70825 18.9844C10.7838 18.7109 11.8092 18.5605 12.7844 18.5332V20.625C12.1191 20.6523 11.4081 20.7526 10.6516 20.9258C9.90422 21.0898 9.19784 21.3223 8.53247 21.623C7.87622 21.9147 7.33846 22.2611 6.91919 22.6621C6.50903 23.054 6.30396 23.487 6.30396 23.9609C6.30396 24.7083 6.73234 25.3646 7.58911 25.9297C8.44588 26.5039 9.62166 26.9505 11.1165 27.2695C12.6112 27.5885 14.3157 27.748 16.2297 27.748C18.1347 27.748 19.8346 27.5885 21.3293 27.2695C22.8241 26.9505 23.9954 26.5039 24.843 25.9297C25.6998 25.3646 26.1282 24.7083 26.1282 23.9609C26.1282 23.487 25.9185 23.054 25.4993 22.6621C25.0891 22.2611 24.5559 21.9147 23.8997 21.623C23.2434 21.3223 22.537 21.0898 21.7805 20.9258C21.0331 20.7526 20.3222 20.6523 19.6477 20.625V18.5332C20.623 18.5605 21.6484 18.7109 22.7239 18.9844C23.7994 19.2578 24.8066 19.6452 25.7454 20.1465C26.6933 20.6387 27.4589 21.2311 28.0422 21.9238C28.6347 22.6165 28.9309 23.3913 28.9309 24.248C28.9309 25.0046 28.6438 25.7246 28.0696 26.4082C27.4954 27.1009 26.6614 27.7161 25.5676 28.2539C24.483 28.7917 23.1523 29.2155 21.5754 29.5254C20.0077 29.8353 18.2258 29.9902 16.2297 29.9902Z" fill="white"/>
</svg>
