<svg width="32" height="32" viewBox="0 0 32 32" fill="none" xmlns="http://www.w3.org/2000/svg">
<path d="M10.0687 21.9836H21.4242C21.6544 21.9836 21.8492 21.904 22.0085 21.7446C22.1679 21.5764 22.2476 21.3816 22.2476 21.1602C22.2476 20.93 22.1679 20.7396 22.0085 20.5891C21.8492 20.4297 21.6544 20.35 21.4242 20.35H10.0687C9.83849 20.35 9.6437 20.4297 9.48433 20.5891C9.32495 20.7396 9.24526 20.93 9.24526 21.1602C9.24526 21.3816 9.32495 21.5764 9.48433 21.7446C9.6437 21.904 9.83849 21.9836 10.0687 21.9836ZM10.0687 26.8446H16.5898C16.82 26.8446 17.0148 26.7605 17.1742 26.5922C17.3335 26.4329 17.4132 26.2425 17.4132 26.0211C17.4132 25.7909 17.3335 25.5961 17.1742 25.4368C17.0236 25.2774 16.8289 25.1977 16.5898 25.1977H10.0687C9.83849 25.1977 9.6437 25.2774 9.48433 25.4368C9.32495 25.5961 9.24526 25.7909 9.24526 26.0211C9.24526 26.2425 9.32495 26.4329 9.48433 26.5922C9.65256 26.7605 9.84735 26.8446 10.0687 26.8446ZM13.1367 18.3977C13.3138 18.3977 13.42 18.3003 13.4554 18.1055C13.5528 17.4592 13.6591 16.95 13.7742 16.5782C13.8893 16.1974 14.0575 15.892 14.2789 15.6618C14.4914 15.4493 14.7835 15.2899 15.1554 15.1836C15.5361 15.0685 16.0497 14.9579 16.696 14.8516C16.8997 14.825 17.0015 14.7144 17.0015 14.5196C17.0015 14.3336 16.8997 14.223 16.696 14.1875C16.0497 14.0813 15.5361 13.975 15.1554 13.8688C14.7835 13.7625 14.4914 13.5943 14.2789 13.3641C14.0575 13.1428 13.8893 12.8461 13.7742 12.4743C13.6591 12.0935 13.5528 11.58 13.4554 10.9336C13.42 10.7389 13.3138 10.6415 13.1367 10.6415C12.9419 10.6415 12.8223 10.7389 12.7781 10.9336C12.6895 11.58 12.5877 12.0935 12.4726 12.4743C12.3575 12.8461 12.1893 13.1428 11.9679 13.3641C11.7466 13.5943 11.4455 13.7625 11.0648 13.8688C10.6929 13.975 10.1838 14.0813 9.53745 14.1875C9.35151 14.223 9.25854 14.3336 9.25854 14.5196C9.25854 14.7144 9.35151 14.825 9.53745 14.8516C10.1838 14.9579 10.6929 15.0685 11.0648 15.1836C11.4455 15.2899 11.7466 15.4493 11.9679 15.6618C12.1893 15.892 12.3575 16.1974 12.4726 16.5782C12.5877 16.95 12.6895 17.4592 12.7781 18.1055C12.8223 18.3003 12.9419 18.3977 13.1367 18.3977ZM9.07261 31.3868C7.75334 31.3868 6.75724 31.0415 6.08433 30.3508C5.41141 29.6691 5.07495 28.6641 5.07495 27.336V8.27739C5.07495 6.94927 5.40698 5.94875 6.07104 5.27583C6.73511 4.59406 7.69578 4.25317 8.95308 4.25317H9.23198C9.22313 4.28859 9.21427 4.33286 9.20542 4.38599C9.20542 4.43026 9.20542 4.47896 9.20542 4.53208V5.99302C9.20542 6.79875 9.44891 7.45838 9.93589 7.97192C10.4317 8.47661 11.0781 8.72896 11.875 8.72896H19.6179C20.4059 8.72896 21.0479 8.47661 21.5437 7.97192C22.0395 7.45838 22.2875 6.79875 22.2875 5.99302V4.53208C22.2875 4.47896 22.283 4.43026 22.2742 4.38599C22.2742 4.33286 22.2697 4.28859 22.2609 4.25317H22.5265C23.7838 4.25317 24.7445 4.59406 25.4085 5.27583C26.0726 5.94875 26.4046 6.94927 26.4046 8.27739V27.336C26.4046 28.6641 26.0682 29.6691 25.3953 30.3508C24.7223 31.0415 23.7263 31.3868 22.407 31.3868H9.07261ZM11.875 7.25474C11.4942 7.25474 11.1976 7.14406 10.9851 6.92271C10.7726 6.70135 10.6664 6.39146 10.6664 5.99302V4.67817C10.6664 4.27974 10.7726 3.96984 10.9851 3.74849C11.1976 3.51828 11.4942 3.40317 11.875 3.40317H12.964C13.0171 2.68599 13.3093 2.07505 13.8406 1.57036C14.3718 1.05682 15.0049 0.800049 15.7398 0.800049C16.4835 0.800049 17.1166 1.05682 17.639 1.57036C18.1703 2.07505 18.4625 2.68599 18.5156 3.40317H19.6179C19.9898 3.40317 20.282 3.51828 20.4945 3.74849C20.707 3.96984 20.8132 4.27974 20.8132 4.67817V5.99302C20.8132 6.39146 20.707 6.70135 20.4945 6.92271C20.282 7.14406 19.9898 7.25474 19.6179 7.25474H11.875ZM15.7398 4.59849C16.0497 4.59849 16.3109 4.49224 16.5234 4.27974C16.7359 4.05838 16.8421 3.80161 16.8421 3.50942C16.8421 3.19953 16.7359 2.93833 16.5234 2.72583C16.3109 2.50448 16.0497 2.3938 15.7398 2.3938C15.4299 2.3938 15.1687 2.50448 14.9562 2.72583C14.7437 2.93833 14.6375 3.19953 14.6375 3.50942C14.6375 3.80161 14.7437 4.05838 14.9562 4.27974C15.1687 4.49224 15.4299 4.59849 15.7398 4.59849Z" fill="white"/>
</svg>
