<svg width="32" height="32" viewBox="0 0 32 32" fill="none" xmlns="http://www.w3.org/2000/svg">
<path d="M6.43752 29.7562C5.10055 29.7562 4.09117 29.4198 3.4094 28.7469C2.73648 28.0739 2.40002 27.0823 2.40002 25.7719V12.8625C2.40002 11.5344 2.73648 10.5383 3.4094 9.87419C4.09117 9.20128 5.10055 8.86482 6.43752 8.86482H24.8055C26.1425 8.86482 27.1474 9.20128 27.8203 9.87419C28.5021 10.5471 28.843 11.5432 28.843 12.8625V25.7719C28.843 27.0823 28.5021 28.0739 27.8203 28.7469C27.1474 29.4198 26.1425 29.7562 24.8055 29.7562H6.43752ZM5.12268 6.81951C5.20237 6.23513 5.39716 5.788 5.70706 5.4781C6.02581 5.15935 6.51278 4.99998 7.16799 4.99998H24.0883C24.7347 4.99998 25.2128 5.15935 25.5227 5.4781C25.8414 5.788 26.0495 6.23513 26.1469 6.81951H5.12268ZM7.68596 3.27341C7.73023 2.72445 7.90732 2.30831 8.21721 2.02498C8.53596 1.74164 8.99195 1.59998 9.58518 1.59998H21.6711C22.2643 1.59998 22.7203 1.74164 23.0391 2.02498C23.3578 2.30831 23.5349 2.72445 23.5703 3.27341H7.68596ZM16.2789 24.4836C16.5357 24.4836 16.6906 24.3463 16.7438 24.0719C16.9209 23.1245 17.0979 22.3541 17.275 21.7609C17.461 21.1588 17.7133 20.6851 18.0321 20.3398C18.3508 19.9857 18.8024 19.7156 19.3867 19.5297C19.98 19.3437 20.7636 19.1844 21.7375 19.0515C22.0386 19.0161 22.1891 18.8523 22.1891 18.5601C22.1891 18.2857 22.0386 18.1263 21.7375 18.082C20.9584 17.9758 20.3032 17.8562 19.7719 17.7234C19.2407 17.5817 18.8024 17.4002 18.4571 17.1789C18.1206 16.9487 17.8461 16.6609 17.6336 16.3156C17.4211 15.9614 17.2485 15.5232 17.1156 15.0008C16.9917 14.4695 16.8677 13.8276 16.7438 13.075C16.6995 12.7828 16.5446 12.6367 16.2789 12.6367C16.0133 12.6367 15.8451 12.7784 15.7742 13.0617C15.6326 13.832 15.4953 14.4828 15.3625 15.014C15.2297 15.5364 15.0615 15.9747 14.8578 16.3289C14.6542 16.683 14.3841 16.9708 14.0477 17.1922C13.7112 17.4047 13.2774 17.5817 12.7461 17.7234C12.2237 17.8562 11.5729 17.9758 10.7938 18.082C10.4927 18.1263 10.3422 18.2857 10.3422 18.5601C10.3422 18.8435 10.4927 19.0073 10.7938 19.0515C11.7766 19.1489 12.5646 19.2906 13.1578 19.4765C13.7511 19.6625 14.2115 19.9325 14.5391 20.2867C14.8667 20.6409 15.119 21.1234 15.2961 21.7344C15.4732 22.3364 15.6326 23.1112 15.7742 24.0586C15.8185 24.3419 15.9867 24.4836 16.2789 24.4836ZM11.1258 26.6086C11.3295 26.6086 11.4578 26.5067 11.511 26.3031C11.6172 25.6745 11.7146 25.2185 11.8031 24.9351C11.8917 24.6518 12.0732 24.457 12.3477 24.3508C12.6222 24.2357 13.1003 24.1294 13.7821 24.032C13.9857 23.9877 14.0875 23.8682 14.0875 23.6734C14.0875 23.4609 13.9857 23.337 13.7821 23.3015C13.1091 23.1864 12.631 23.0758 12.3477 22.9695C12.0732 22.8633 11.8917 22.6729 11.8031 22.3984C11.7146 22.1151 11.6172 21.6679 11.511 21.057C11.4578 20.8268 11.3295 20.7117 11.1258 20.7117C10.9576 20.7117 10.838 20.8268 10.7672 21.057C10.6433 21.6679 10.5414 22.1107 10.4617 22.3851C10.3821 22.6596 10.205 22.8544 9.93049 22.9695C9.66487 23.0758 9.18674 23.1864 8.49612 23.3015C8.29247 23.337 8.19065 23.4609 8.19065 23.6734C8.19065 23.8682 8.30575 23.9877 8.53596 24.032C9.20888 24.1294 9.67815 24.2357 9.94377 24.3508C10.2094 24.457 10.3821 24.6474 10.4617 24.9219C10.5414 25.2052 10.6433 25.6567 10.7672 26.2765C10.838 26.4979 10.9576 26.6086 11.1258 26.6086Z" fill="white"/>
</svg>
