<svg width="32" height="32" viewBox="0 0 32 32" fill="none" xmlns="http://www.w3.org/2000/svg">
<path d="M27.9043 14.2461C29.0926 14.2461 30.003 14.5814 30.6357 15.252C31.2685 15.9227 31.585 16.8838 31.585 18.1348V25.8711C31.585 26.2156 31.4908 26.4881 31.3027 26.6875C31.1146 26.8958 30.858 27 30.5332 27H29.79C29.4824 27 29.2298 26.8958 29.0332 26.6875C28.8451 26.4881 28.751 26.2156 28.751 25.8711V23.9951C28.6826 24.0132 28.5626 24.0317 28.3916 24.0498C28.2206 24.0589 28.0582 24.0635 27.9043 24.0635H4.2793C4.12549 24.0635 3.96287 24.0589 3.79199 24.0498C3.62106 24.0317 3.50104 24.0132 3.43262 23.9951V25.8711C3.43262 26.2156 3.33436 26.4881 3.1377 26.6875C2.9496 26.8959 2.69718 27 2.38086 27H1.63672C1.32046 27 1.0638 26.8959 0.867188 26.6875C0.679076 26.4881 0.584961 26.2156 0.584961 25.8711V18.1348C0.584961 16.8838 0.901439 15.9227 1.53418 15.252C2.17547 14.5812 3.0908 14.2461 4.2793 14.2461H27.9043ZM25.2109 3C26.3139 3.00003 27.16 3.30846 27.75 3.9248C28.3485 4.54114 28.6484 5.45181 28.6484 6.65723V12.3564H3.53516V6.65723C3.53522 5.45195 3.83013 4.54114 4.41992 3.9248C5.01846 3.30841 5.86964 3 6.97266 3H25.2109ZM10.373 5C10.2051 5.00011 10.0855 5.11495 10.0146 5.34473C9.89076 5.95532 9.78865 6.39835 9.70898 6.67285C9.6293 6.94726 9.45213 7.14271 9.17773 7.25781C8.91207 7.36404 8.43361 7.47477 7.74316 7.58984C7.5397 7.62532 7.4375 7.74951 7.4375 7.96191C7.43765 8.15642 7.5533 8.27603 7.7832 8.32031C8.45549 8.41762 8.92473 8.52368 9.19043 8.63867C9.45603 8.74491 9.62929 8.93552 9.70898 9.20996C9.78866 9.49327 9.89071 9.94478 10.0146 10.5645C10.0854 10.7857 10.2049 10.8964 10.373 10.8965C10.5766 10.8964 10.7047 10.7944 10.7578 10.5908C10.864 9.96275 10.9613 9.50695 11.0498 9.22363C11.1383 8.94037 11.3204 8.74494 11.5947 8.63867C11.8692 8.52359 12.3477 8.41769 13.0293 8.32031C13.2327 8.27604 13.3348 8.15644 13.335 7.96191C13.335 7.74949 13.2328 7.62531 13.0293 7.58984C12.3566 7.47476 11.878 7.36404 11.5947 7.25781C11.3204 7.15155 11.1383 6.96093 11.0498 6.68652C10.9613 6.40318 10.864 5.95553 10.7578 5.34473C10.7046 5.11491 10.5764 5.00007 10.373 5ZM21.373 5C21.2051 5.00011 21.0855 5.11495 21.0146 5.34473C20.8908 5.95532 20.7887 6.39835 20.709 6.67285C20.6293 6.94726 20.4521 7.14271 20.1777 7.25781C19.9121 7.36404 19.4336 7.47477 18.7432 7.58984C18.5397 7.62532 18.4375 7.74951 18.4375 7.96191C18.4376 8.15642 18.5533 8.27603 18.7832 8.32031C19.4555 8.41762 19.9247 8.52368 20.1904 8.63867C20.456 8.74491 20.6293 8.93552 20.709 9.20996C20.7887 9.49327 20.8907 9.94478 21.0146 10.5645C21.0854 10.7857 21.2049 10.8964 21.373 10.8965C21.5766 10.8964 21.7047 10.7944 21.7578 10.5908C21.864 9.96275 21.9613 9.50695 22.0498 9.22363C22.1383 8.94037 22.3204 8.74494 22.5947 8.63867C22.8692 8.52359 23.3477 8.41769 24.0293 8.32031C24.2327 8.27604 24.3348 8.15644 24.335 7.96191C24.335 7.74949 24.2328 7.62531 24.0293 7.58984C23.3566 7.47476 22.878 7.36404 22.5947 7.25781C22.3204 7.15155 22.1383 6.96093 22.0498 6.68652C21.9613 6.40318 21.864 5.95553 21.7578 5.34473C21.7046 5.11491 21.5764 5.00007 21.373 5Z" fill="white"/>
</svg>
