<svg width="32" height="32" viewBox="0 0 32 32" fill="none" xmlns="http://www.w3.org/2000/svg">
<path d="M7.23745 27.2953C5.90933 27.2953 4.90438 26.9633 4.22261 26.2992C3.54084 25.6352 3.19995 24.6391 3.19995 23.3109V7.99766C3.19995 6.66953 3.54084 5.67344 4.22261 5.00937C4.90438 4.33646 5.90933 4 7.23745 4H24.4632C25.8091 4 26.8184 4.33646 27.4914 5.00937C28.1643 5.68229 28.5007 6.67839 28.5007 7.99766V23.3109C28.5007 24.6302 28.1643 25.6219 27.4914 26.2859C26.8184 26.9589 25.8091 27.2953 24.4632 27.2953H7.23745ZM7.1312 25.0508H24.5562C25.0963 25.0508 25.5125 24.9091 25.8046 24.6258C26.1057 24.3424 26.2562 23.913 26.2562 23.3375V11.6367C26.2562 11.0701 26.1057 10.6451 25.8046 10.3617C25.5125 10.0784 25.0963 9.93672 24.5562 9.93672H7.1312C6.5911 9.93672 6.17938 10.0784 5.89604 10.3617C5.61271 10.6451 5.47105 11.0701 5.47105 11.6367V23.3375C5.47105 23.913 5.61271 24.3424 5.89604 24.6258C6.17938 24.9091 6.5911 25.0508 7.1312 25.0508ZM13.4265 14.3594C13.2052 14.3594 13.0458 14.3195 12.9484 14.2398C12.8598 14.1602 12.8156 14.0096 12.8156 13.7883V13.0578C12.8156 12.8365 12.8598 12.6859 12.9484 12.6062C13.0458 12.5177 13.2052 12.4734 13.4265 12.4734H14.157C14.3783 12.4734 14.5289 12.5177 14.6085 12.6062C14.6971 12.6859 14.7414 12.8365 14.7414 13.0578V13.7883C14.7414 14.0096 14.6971 14.1602 14.6085 14.2398C14.5289 14.3195 14.3783 14.3594 14.157 14.3594H13.4265ZM17.557 14.3594C17.3356 14.3594 17.1807 14.3195 17.0921 14.2398C17.0125 14.1602 16.9726 14.0096 16.9726 13.7883V13.0578C16.9726 12.8365 17.0125 12.6859 17.0921 12.6062C17.1807 12.5177 17.3356 12.4734 17.557 12.4734H18.3007C18.5221 12.4734 18.677 12.5177 18.7656 12.6062C18.8541 12.6859 18.8984 12.8365 18.8984 13.0578V13.7883C18.8984 14.0096 18.8541 14.1602 18.7656 14.2398C18.677 14.3195 18.5221 14.3594 18.3007 14.3594H17.557ZM21.7007 14.3594C21.4705 14.3594 21.3111 14.3195 21.2226 14.2398C21.1429 14.1602 21.1031 14.0096 21.1031 13.7883V13.0578C21.1031 12.8365 21.1429 12.6859 21.2226 12.6062C21.3111 12.5177 21.4705 12.4734 21.7007 12.4734H22.4445C22.6658 12.4734 22.8164 12.5177 22.896 12.6062C22.9846 12.6859 23.0289 12.8365 23.0289 13.0578V13.7883C23.0289 14.0096 22.9846 14.1602 22.896 14.2398C22.8164 14.3195 22.6658 14.3594 22.4445 14.3594H21.7007ZM9.28276 18.45C9.05256 18.45 8.89318 18.4102 8.80464 18.3305C8.72495 18.2419 8.68511 18.087 8.68511 17.8656V17.1219C8.68511 16.9005 8.72495 16.75 8.80464 16.6703C8.89318 16.5906 9.05256 16.5508 9.28276 16.5508H10.0132C10.2434 16.5508 10.3984 16.5906 10.4781 16.6703C10.5666 16.75 10.6109 16.9005 10.6109 17.1219V17.8656C10.6109 18.087 10.5666 18.2419 10.4781 18.3305C10.3984 18.4102 10.2434 18.45 10.0132 18.45H9.28276ZM13.4265 18.45C13.2052 18.45 13.0458 18.4102 12.9484 18.3305C12.8598 18.2419 12.8156 18.087 12.8156 17.8656V17.1219C12.8156 16.9005 12.8598 16.75 12.9484 16.6703C13.0458 16.5906 13.2052 16.5508 13.4265 16.5508H14.157C14.3783 16.5508 14.5289 16.5906 14.6085 16.6703C14.6971 16.75 14.7414 16.9005 14.7414 17.1219V17.8656C14.7414 18.087 14.6971 18.2419 14.6085 18.3305C14.5289 18.4102 14.3783 18.45 14.157 18.45H13.4265ZM17.557 18.45C17.3356 18.45 17.1807 18.4102 17.0921 18.3305C17.0125 18.2419 16.9726 18.087 16.9726 17.8656V17.1219C16.9726 16.9005 17.0125 16.75 17.0921 16.6703C17.1807 16.5906 17.3356 16.5508 17.557 16.5508H18.3007C18.5221 16.5508 18.677 16.5906 18.7656 16.6703C18.8541 16.75 18.8984 16.9005 18.8984 17.1219V17.8656C18.8984 18.087 18.8541 18.2419 18.7656 18.3305C18.677 18.4102 18.5221 18.45 18.3007 18.45H17.557ZM21.7007 18.45C21.4705 18.45 21.3111 18.4102 21.2226 18.3305C21.1429 18.2419 21.1031 18.087 21.1031 17.8656V17.1219C21.1031 16.9005 21.1429 16.75 21.2226 16.6703C21.3111 16.5906 21.4705 16.5508 21.7007 16.5508H22.4445C22.6658 16.5508 22.8164 16.5906 22.896 16.6703C22.9846 16.75 23.0289 16.9005 23.0289 17.1219V17.8656C23.0289 18.087 22.9846 18.2419 22.896 18.3305C22.8164 18.4102 22.6658 18.45 22.4445 18.45H21.7007ZM9.28276 22.5141C9.05256 22.5141 8.89318 22.4742 8.80464 22.3945C8.72495 22.3148 8.68511 22.1643 8.68511 21.943V21.2125C8.68511 20.9823 8.72495 20.8273 8.80464 20.7477C8.89318 20.668 9.05256 20.6281 9.28276 20.6281H10.0132C10.2434 20.6281 10.3984 20.668 10.4781 20.7477C10.5666 20.8273 10.6109 20.9823 10.6109 21.2125V21.943C10.6109 22.1643 10.5666 22.3148 10.4781 22.3945C10.3984 22.4742 10.2434 22.5141 10.0132 22.5141H9.28276ZM13.4265 22.5141C13.2052 22.5141 13.0458 22.4742 12.9484 22.3945C12.8598 22.3148 12.8156 22.1643 12.8156 21.943V21.2125C12.8156 20.9823 12.8598 20.8273 12.9484 20.7477C13.0458 20.668 13.2052 20.6281 13.4265 20.6281H14.157C14.3783 20.6281 14.5289 20.668 14.6085 20.7477C14.6971 20.8273 14.7414 20.9823 14.7414 21.2125V21.943C14.7414 22.1643 14.6971 22.3148 14.6085 22.3945C14.5289 22.4742 14.3783 22.5141 14.157 22.5141H13.4265ZM17.557 22.5141C17.3356 22.5141 17.1807 22.4742 17.0921 22.3945C17.0125 22.3148 16.9726 22.1643 16.9726 21.943V21.2125C16.9726 20.9823 17.0125 20.8273 17.0921 20.7477C17.1807 20.668 17.3356 20.6281 17.557 20.6281H18.3007C18.5221 20.6281 18.677 20.668 18.7656 20.7477C18.8541 20.8273 18.8984 20.9823 18.8984 21.2125V21.943C18.8984 22.1643 18.8541 22.3148 18.7656 22.3945C18.677 22.4742 18.5221 22.5141 18.3007 22.5141H17.557Z" fill="white"/>
</svg>
