<svg width="32" height="32" viewBox="0 0 32 32" fill="none" xmlns="http://www.w3.org/2000/svg">
<path d="M6.13831 13.9039C6.13831 13.5674 6.27112 13.2664 6.53674 13.0008L14.8375 4.68672C15.1032 4.40339 15.4175 4.26172 15.7805 4.26172C16.1347 4.26172 16.4446 4.40339 16.7102 4.68672L24.9977 12.9609C25.1393 13.1203 25.2412 13.2753 25.3032 13.4258C25.374 13.5763 25.4094 13.7357 25.4094 13.9039C25.4094 14.2581 25.2943 14.5503 25.0641 14.7805C24.8339 15.0195 24.5461 15.1391 24.2008 15.1391C24.0326 15.1391 23.8688 15.1036 23.7094 15.0328C23.55 14.9708 23.4172 14.8867 23.311 14.7805L20.4555 11.9648L15.7805 6.85156L11.1055 11.9648L8.23674 14.7805C8.13049 14.8867 7.99768 14.9708 7.83831 15.0328C7.68778 15.1036 7.52398 15.1391 7.3469 15.1391C7.00159 15.1391 6.71383 15.0195 6.48362 14.7805C6.25341 14.5503 6.13831 14.2581 6.13831 13.9039ZM14.5188 10.9953L14.7844 6.78516C14.7844 6.48411 14.8729 6.24063 15.05 6.05469C15.236 5.86875 15.4795 5.77578 15.7805 5.77578C16.0727 5.77578 16.3117 5.86875 16.4977 6.05469C16.6836 6.24063 16.7766 6.48411 16.7766 6.78516L17.0289 10.9953L17.0289 26.5609C17.0289 26.924 16.9094 27.2206 16.6703 27.4508C16.4401 27.6898 16.1435 27.8094 15.7805 27.8094C15.4086 27.8094 15.1031 27.6898 14.8641 27.4508C14.6339 27.2206 14.5188 26.924 14.5188 26.5609L14.5188 10.9953Z" fill="white"/>
</svg>
