<svg width="32" height="32" viewBox="0 0 32 32" fill="none" xmlns="http://www.w3.org/2000/svg">
<path d="M13.6422 25.6711C13.3057 25.6711 13.0047 25.5383 12.7391 25.2727L4.425 16.9719C4.14167 16.7063 4 16.392 4 16.0289C4 15.6748 4.14167 15.3649 4.425 15.0992L12.6992 6.81174C12.8586 6.67008 13.0135 6.56825 13.1641 6.50627C13.3146 6.43544 13.474 6.40002 13.6422 6.40002C13.9964 6.40002 14.2885 6.51513 14.5188 6.74534C14.7578 6.97555 14.8773 7.26331 14.8773 7.60862C14.8773 7.77685 14.8419 7.94065 14.7711 8.10002C14.7091 8.2594 14.625 8.39221 14.5188 8.49846L11.7031 11.3539L6.58984 16.0289L11.7031 20.7039L14.5188 23.5727C14.625 23.6789 14.7091 23.8117 14.7711 23.9711C14.8419 24.1216 14.8773 24.2854 14.8773 24.4625C14.8773 24.8078 14.7578 25.0956 14.5188 25.3258C14.2885 25.556 13.9964 25.6711 13.6422 25.6711ZM10.7336 17.2906L6.52344 17.025C6.2224 17.025 5.97891 16.9365 5.79297 16.7594C5.60703 16.5735 5.51406 16.33 5.51406 16.0289C5.51406 15.7367 5.60703 15.4977 5.79297 15.3117C5.97891 15.1258 6.2224 15.0328 6.52344 15.0328L10.7336 14.7805H26.2992C26.6622 14.7805 26.9589 14.9 27.1891 15.1391C27.4281 15.3693 27.5477 15.6659 27.5477 16.0289C27.5477 16.4008 27.4281 16.7063 27.1891 16.9453C26.9589 17.1755 26.6622 17.2906 26.2992 17.2906H10.7336Z" fill="white"/>
</svg>
