<svg width="32" height="32" viewBox="0 0 32 32" fill="none" xmlns="http://www.w3.org/2000/svg">
<path d="M19.4968 8.24779C19.2838 8.24779 19.1649 8.14126 19.1403 7.9282C19.0502 7.24805 18.9601 6.71951 18.8699 6.34256C18.7798 5.96561 18.6323 5.6829 18.4274 5.49443C18.2308 5.29776 17.9317 5.14616 17.5301 5.03963C17.1368 4.9331 16.5878 4.81018 15.883 4.67088C15.6618 4.6381 15.5511 4.51928 15.5511 4.31442C15.5511 4.10136 15.6618 3.97844 15.883 3.94566C16.5878 3.85552 17.1409 3.76129 17.5424 3.66295C17.9439 3.56462 18.243 3.41712 18.4397 3.22045C18.6446 3.01558 18.788 2.72058 18.8699 2.33544C18.9601 1.9421 19.0502 1.40126 19.1403 0.712923C19.1649 0.491671 19.2838 0.381045 19.4968 0.381045C19.7263 0.381045 19.8492 0.495769 19.8656 0.725215C19.9475 1.39717 20.0336 1.92162 20.1237 2.29856C20.222 2.67551 20.3736 2.95822 20.5785 3.1467C20.7833 3.33517 21.0825 3.48267 21.4758 3.5892C21.8773 3.69573 22.4304 3.81455 23.1352 3.94566C23.3482 3.98663 23.4548 4.10955 23.4548 4.31442C23.4548 4.51928 23.3318 4.6381 23.086 4.67088C22.3895 4.77741 21.8445 4.88394 21.4512 4.99046C21.0579 5.09699 20.7629 5.24859 20.5662 5.44526C20.3695 5.64193 20.222 5.93283 20.1237 6.31798C20.0336 6.70312 19.9475 7.23167 19.8656 7.90362C19.8492 8.13306 19.7263 8.24779 19.4968 8.24779ZM11.5686 5.12567C11.4129 5.12567 11.3228 5.05192 11.2982 4.90442C11.2162 4.47011 11.1425 4.13414 11.0769 3.8965C11.0196 3.65885 10.9294 3.47857 10.8065 3.35566C10.6836 3.23274 10.4992 3.1385 10.2534 3.07295C10.0157 3.00739 9.67977 2.93364 9.24546 2.85169C9.07338 2.81072 8.98734 2.71648 8.98734 2.56898C8.98734 2.41329 9.07338 2.31905 9.24546 2.28627C9.67977 2.20433 10.0157 2.13058 10.2534 2.06502C10.491 1.99127 10.6672 1.89703 10.7819 1.78231C10.9049 1.65939 10.9991 1.47911 11.0646 1.24147C11.1302 0.995634 11.2081 0.659659 11.2982 0.233544C11.3228 0.077848 11.4129 0 11.5686 0C11.7161 0 11.8063 0.0819452 11.839 0.245836C11.9292 0.663756 12.007 0.991537 12.0726 1.22918C12.1381 1.46682 12.2283 1.6471 12.343 1.77002C12.4577 1.89293 12.6339 1.99127 12.8715 2.06502C13.1174 2.13058 13.4534 2.20433 13.8795 2.28627C14.0516 2.32724 14.1376 2.42148 14.1376 2.56898C14.1376 2.71648 14.0516 2.81072 13.8795 2.85169C13.3059 2.95003 12.892 3.04836 12.638 3.1467C12.3922 3.23684 12.2242 3.40892 12.134 3.66295C12.0439 3.90879 11.9456 4.32261 11.839 4.90442C11.8063 5.05192 11.7161 5.12567 11.5686 5.12567ZM4.96792 31.2949C4.81223 31.2949 4.71389 31.2047 4.67292 31.0245C4.5582 30.4508 4.45986 30.0042 4.37792 29.6847C4.29597 29.3651 4.17306 29.1192 4.00916 28.9471C3.85347 28.7833 3.60763 28.6562 3.27166 28.5661C2.94388 28.476 2.48089 28.3694 1.88269 28.2465C1.69421 28.1974 1.59998 28.0949 1.59998 27.9392C1.59998 27.7589 1.69831 27.6524 1.89498 27.6196C2.48498 27.5049 2.94388 27.3984 3.27166 27.3001C3.60763 27.2017 3.85347 27.0706 4.00916 26.9067C4.16486 26.7428 4.28368 26.497 4.36563 26.1692C4.44757 25.8496 4.55 25.403 4.67292 24.8294C4.71389 24.6491 4.81223 24.559 4.96792 24.559C5.1482 24.559 5.25473 24.6491 5.28751 24.8294C5.39404 25.3948 5.49237 25.8373 5.58251 26.1569C5.67265 26.4847 5.79557 26.7305 5.95127 26.8944C6.11516 27.0665 6.3569 27.1976 6.67648 27.2878C7.00426 27.3861 7.46725 27.4967 8.06545 27.6196C8.26212 27.6524 8.36046 27.7589 8.36046 27.9392C8.36046 28.0949 8.26212 28.1974 8.06545 28.2465C7.46725 28.353 7.00426 28.4514 6.67648 28.5415C6.3487 28.6399 6.10287 28.771 5.93897 28.9349C5.77508 29.1069 5.65217 29.3528 5.57022 29.6724C5.48828 30.0001 5.39404 30.4508 5.28751 31.0245C5.25473 31.2047 5.1482 31.2949 4.96792 31.2949ZM11.0892 27.5336L3.29624 19.7529C3.04221 19.4989 2.9152 19.1957 2.9152 18.8433C2.9152 18.4827 3.04221 18.1754 3.29624 17.9214C3.55027 17.6674 3.85347 17.5445 4.20583 17.5527C4.56639 17.5527 4.87369 17.6756 5.12772 17.9214L10.069 22.8627C10.11 22.6824 10.151 22.4981 10.1919 22.3096C10.2411 22.1211 10.3026 21.9326 10.3763 21.7442L3.28395 14.6518C3.02992 14.3896 2.89881 14.0823 2.89061 13.7299C2.89061 13.3694 3.02173 13.0621 3.28395 12.808C3.52979 12.5622 3.82889 12.4393 4.18125 12.4393C4.54181 12.4393 4.8491 12.5622 5.10313 12.808L11.6424 19.3473C11.7489 19.208 11.8554 19.0687 11.9619 18.9293C12.0685 18.7818 12.1832 18.6425 12.3061 18.5114L5.1523 11.3699C4.89827 11.1159 4.77126 10.8127 4.77126 10.4603C4.77126 10.0997 4.89827 9.79245 5.1523 9.53842C5.41453 9.28439 5.72182 9.15738 6.07418 9.15738C6.43474 9.15738 6.73794 9.28439 6.98378 9.53842L14.2113 16.7783C14.3588 16.6718 14.5104 16.5775 14.6661 16.4956C14.8218 16.4054 14.9734 16.3235 15.1209 16.2497L8.87671 10.0178C8.62268 9.75558 8.49567 9.44828 8.49567 9.09592C8.49567 8.74356 8.62268 8.44036 8.87671 8.18633C9.13074 7.9323 9.43394 7.80528 9.7863 7.80528C10.1387 7.80528 10.446 7.9323 10.7082 8.18633L19.3493 16.8397C19.4968 16.979 19.6238 17.0528 19.7304 17.061C19.8369 17.061 19.927 17.0241 20.0008 16.9504C20.0663 16.8766 20.1032 16.7824 20.1114 16.6677C20.1278 16.5529 20.0991 16.4054 20.0254 16.2252L18.7347 12.6482C18.5381 12.0828 18.4479 11.6198 18.4643 11.2593C18.4807 10.8987 18.6282 10.5873 18.9068 10.3251C19.1526 10.1038 19.4231 9.99322 19.7181 9.99322C20.0131 9.99322 20.2753 10.112 20.5047 10.3497C20.6358 10.4972 20.7874 10.7184 20.9595 11.0134C21.1316 11.3084 21.3078 11.6321 21.4881 11.9845C21.6684 12.3369 21.8445 12.6728 22.0166 12.9924C22.2952 13.5251 22.5698 14.0536 22.8402 14.5781C23.1106 15.1025 23.3646 15.6229 23.6023 16.1391C23.8481 16.6554 24.0694 17.1716 24.266 17.6879C24.4627 18.1959 24.6225 18.6917 24.7454 19.1752C25.2535 20.7895 25.3477 22.285 25.0281 23.6617C24.7167 25.0384 23.9219 26.3659 22.6435 27.6442C21.8159 28.4719 20.9227 29.1028 19.9639 29.5372C19.0051 29.9715 18.0136 30.1927 16.9893 30.2009C15.9732 30.2173 14.9611 30.0042 13.9532 29.5617C12.9535 29.1274 11.9988 28.4514 11.0892 27.5336ZM17.1737 10.3497C17.1081 10.6529 17.0753 10.9684 17.0753 11.2961C17.0753 11.6239 17.104 11.964 17.1614 12.3164L13.1051 8.26008C13.1297 8.2273 13.1502 8.19862 13.1665 8.17404C13.4206 7.9282 13.7238 7.80528 14.0761 7.80528C14.4367 7.80528 14.744 7.9282 14.998 8.17404L17.1737 10.3497ZM26.9333 27.6565C26.2368 28.3449 25.487 28.898 24.6839 29.3159C23.8809 29.742 23.0573 30.0124 22.2133 30.1272C22.7787 29.742 23.3114 29.2995 23.8112 28.7996C25.2535 27.3656 26.1794 25.825 26.5892 24.1779C27.0071 22.5226 26.921 20.7198 26.331 18.7696C26.2081 18.2615 26.0442 17.7452 25.8394 17.2208C25.6427 16.6881 25.4255 16.1555 25.1879 15.6229C24.9503 15.0902 24.6962 14.5617 24.4258 14.0372C24.1636 13.5128 23.8973 12.9965 23.6269 12.4885C23.4875 12.2344 23.3482 11.9763 23.2089 11.7141C23.0778 11.4437 22.9426 11.1814 22.8033 10.9274C22.8852 10.6979 23.0164 10.5013 23.1966 10.3374C23.4425 10.1079 23.7129 9.99322 24.0079 9.99322C24.3029 9.99322 24.5651 10.112 24.7946 10.3497C24.9257 10.4972 25.0773 10.7184 25.2494 11.0134C25.4214 11.3002 25.5976 11.6239 25.7779 11.9845C25.9664 12.3369 26.1426 12.6728 26.3065 12.9924C26.5851 13.5251 26.8596 14.0536 27.13 14.5781C27.4004 15.1025 27.6545 15.6229 27.8921 16.1391C28.1379 16.6554 28.3592 17.1675 28.5559 17.6756C28.7525 18.1836 28.9164 18.6835 29.0475 19.1752C29.5556 20.7895 29.6498 22.285 29.3302 23.6617C29.0107 25.0384 28.2117 26.37 26.9333 27.6565Z" fill="white"/>
</svg>
