<svg width="32" height="32" viewBox="0 0 32 32" fill="none" xmlns="http://www.w3.org/2000/svg">
<path d="M15.9938 26C14.4326 26 12.9545 25.81 11.5594 25.43C10.1643 25.0582 8.87297 24.5626 7.68548 23.943C6.49799 23.3234 5.43091 22.6419 4.48424 21.8984C3.53756 21.1466 2.72791 20.3949 2.05527 19.6431C1.39094 18.8831 0.880239 18.185 0.523161 17.5489C0.174387 16.9128 0 16.3965 0 16C0 15.6035 0.178539 15.0872 0.535617 14.4511C0.892695 13.8067 1.4034 13.1086 2.06773 12.3569C2.73206 11.6051 3.53756 10.8575 4.48424 10.114C5.43091 9.36225 6.49799 8.67658 7.68548 8.057C8.88128 7.42916 10.1767 6.92937 11.5718 6.55762C12.9669 6.18587 14.4409 6 15.9938 6C17.5799 6 19.0746 6.18587 20.478 6.55762C21.8814 6.92937 23.1769 7.42916 24.3643 8.057C25.5518 8.67658 26.6148 9.36225 27.5531 10.114C28.4915 10.8575 29.2929 11.6051 29.9572 12.3569C30.6215 13.1086 31.1281 13.8067 31.4768 14.4511C31.8256 15.0872 32 15.6035 32 16C32 16.3965 31.8256 16.9128 31.4768 17.5489C31.1281 18.185 30.6215 18.8831 29.9572 19.6431C29.3012 20.3949 28.4998 21.1466 27.5531 21.8984C26.6148 22.6419 25.5518 23.3234 24.3643 23.943C23.1852 24.5626 21.8897 25.0582 20.478 25.43C19.0746 25.81 17.5799 26 15.9938 26ZM15.9938 22.4932C17.1979 22.4932 18.294 22.1999 19.2822 21.6134C20.2704 21.0268 21.0551 20.2462 21.6364 19.2714C22.226 18.2883 22.5208 17.1979 22.5208 16C22.5208 14.8021 22.226 13.7158 21.6364 12.741C21.0551 11.758 20.2704 10.9732 19.2822 10.3866C18.294 9.80008 17.1979 9.50682 15.9938 9.50682C14.8063 9.50682 13.7184 9.80008 12.7302 10.3866C11.7421 10.9732 10.9532 11.758 10.3636 12.741C9.77397 13.7158 9.47917 14.8021 9.47917 16C9.47917 17.1979 9.77397 18.2883 10.3636 19.2714C10.9532 20.2462 11.7421 21.0268 12.7302 21.6134C13.7184 22.1999 14.8063 22.4932 15.9938 22.4932ZM15.9938 18.404C15.3294 18.404 14.7606 18.1685 14.2873 17.6976C13.8222 17.2268 13.5897 16.6609 13.5897 16C13.5897 15.3391 13.8222 14.7732 14.2873 14.3024C14.7606 13.8315 15.3294 13.596 15.9938 13.596C16.6747 13.596 17.2477 13.8315 17.7127 14.3024C18.1778 14.7732 18.4103 15.3391 18.4103 16C18.4103 16.6609 18.1778 17.2268 17.7127 17.6976C17.2477 18.1685 16.6747 18.404 15.9938 18.404Z" fill="white"/>
</svg>
