<svg width="32" height="32" viewBox="0 0 32 32" fill="none" xmlns="http://www.w3.org/2000/svg">
<path d="M18.3215 1.72656C18.5312 1.72656 18.7089 1.79948 18.8547 1.94531C19.0006 2.08203 19.0917 2.25977 19.1282 2.47852C19.3469 4.11003 19.5885 5.48633 19.8528 6.60742C20.1171 7.7194 20.4635 8.63542 20.8918 9.35547C21.3293 10.0755 21.9036 10.6543 22.6145 11.0918C23.3254 11.5293 24.2278 11.8711 25.3215 12.1172C26.4244 12.3542 27.7779 12.5638 29.3821 12.7461C29.6099 12.7734 29.7968 12.8646 29.9426 13.0195C30.0885 13.1654 30.1614 13.3477 30.1614 13.5664C30.1614 13.7852 30.0885 13.972 29.9426 14.127C29.7968 14.2728 29.6099 14.3594 29.3821 14.3867C27.7779 14.569 26.429 14.7832 25.3352 15.0293C24.2415 15.2754 23.3391 15.6172 22.6282 16.0547C21.9172 16.4831 21.343 17.0618 20.9055 17.791C20.4771 18.5111 20.1262 19.4271 19.8528 20.5391C19.5885 21.651 19.3469 23.0182 19.1282 24.6406C19.0917 24.8685 19.0006 25.0508 18.8547 25.1875C18.7089 25.3333 18.5312 25.4062 18.3215 25.4062C18.1119 25.4062 17.9342 25.3333 17.7883 25.1875C17.6425 25.0508 17.5514 24.8685 17.5149 24.6406C17.2961 23.0182 17.0546 21.651 16.7903 20.5391C16.5351 19.418 16.1887 18.4974 15.7512 17.7773C15.3228 17.0573 14.7486 16.4785 14.0286 16.041C13.3176 15.6035 12.4107 15.2663 11.3079 15.0293C10.2141 14.7832 8.86971 14.569 7.27466 14.3867C7.03768 14.3594 6.84627 14.2728 6.70044 14.127C6.56372 13.972 6.49536 13.7852 6.49536 13.5664C6.49536 13.3477 6.56372 13.1654 6.70044 13.0195C6.84627 12.8646 7.03768 12.7734 7.27466 12.7461C8.86971 12.5365 10.2141 12.304 11.3079 12.0488C12.4016 11.7936 13.2994 11.4518 14.0012 11.0234C14.7122 10.5859 15.2818 10.0163 15.7102 9.31445C16.1477 8.60352 16.4986 7.69206 16.7629 6.58008C17.0364 5.4681 17.287 4.10091 17.5149 2.47852C17.5514 2.25977 17.6425 2.08203 17.7883 1.94531C17.9342 1.79948 18.1119 1.72656 18.3215 1.72656ZM8.0813 18.2969C8.23625 18.2969 8.35929 18.3424 8.45044 18.4336C8.5507 18.5156 8.60994 18.6296 8.62817 18.7754C8.75578 19.7598 8.88794 20.5345 9.02466 21.0996C9.16138 21.6556 9.37557 22.0749 9.66724 22.3574C9.96802 22.6309 10.4055 22.8451 10.9797 23C11.5631 23.1641 12.3697 23.3372 13.3997 23.5195C13.5364 23.5469 13.6503 23.6061 13.7415 23.6973C13.8326 23.7975 13.8782 23.9206 13.8782 24.0664C13.8782 24.2214 13.8326 24.3444 13.7415 24.4355C13.6503 24.5267 13.5364 24.5768 13.3997 24.5859C12.3697 24.7409 11.5631 24.8867 10.9797 25.0234C10.3964 25.1693 9.9589 25.3835 9.66724 25.666C9.37557 25.9577 9.16138 26.3906 9.02466 26.9648C8.88794 27.5391 8.75578 28.332 8.62817 29.3438C8.59172 29.681 8.40942 29.8496 8.0813 29.8496C7.76229 29.8496 7.58911 29.6764 7.56177 29.3301C7.43416 28.3366 7.302 27.5618 7.16528 27.0059C7.02856 26.459 6.80981 26.0443 6.50903 25.7617C6.21737 25.4883 5.77531 25.2741 5.18286 25.1191C4.59953 24.9642 3.79744 24.7865 2.77661 24.5859C2.4576 24.5404 2.2981 24.3672 2.2981 24.0664C2.2981 23.7565 2.48039 23.5742 2.84497 23.5195C3.85669 23.3646 4.64966 23.2096 5.22388 23.0547C5.80721 22.9089 6.24471 22.6947 6.53638 22.4121C6.82804 22.1204 7.03768 21.6921 7.16528 21.127C7.302 20.5618 7.43416 19.7826 7.56177 18.7891C7.57088 18.6341 7.62101 18.5156 7.71216 18.4336C7.81242 18.3424 7.93547 18.2969 8.0813 18.2969Z" fill="white"/>
</svg>
