<svg width="32" height="32" viewBox="0 0 32 32" fill="none" xmlns="http://www.w3.org/2000/svg">
<path d="M10.7336 21.0762C9.4576 19.8001 8.31372 18.474 7.302 17.0977C6.2994 15.7122 5.50643 14.3314 4.9231 12.9551C4.34888 11.5788 4.06177 10.2754 4.06177 9.04492C4.06177 7.34049 4.6132 5.95052 5.71606 4.875C6.08976 4.51953 6.51815 4.20052 7.00122 3.91797C7.49341 3.6263 7.95825 3.48047 8.39575 3.48047C8.75122 3.48047 9.06567 3.60807 9.33911 3.86328C9.61255 4.10938 9.90422 4.45117 10.2141 4.88867L12.4016 7.95117C12.6477 8.29753 12.8163 8.61198 12.9075 8.89453C13.0077 9.16797 13.0579 9.43229 13.0579 9.6875C13.0579 9.91536 13.026 10.125 12.9622 10.3164C12.9075 10.4987 12.8027 10.7311 12.6477 11.0137L11.4036 13.1191C11.358 13.2103 11.3124 13.2969 11.2668 13.3789C11.2304 13.4609 11.2122 13.5384 11.2122 13.6113C11.2122 13.7207 11.2258 13.8255 11.2532 13.9258C11.2896 14.0169 11.3261 14.0944 11.3625 14.1582C11.8821 15.2155 12.7799 16.3822 14.0559 17.6582C14.6757 18.2689 15.3092 18.8294 15.9563 19.3398C16.6125 19.8411 17.1868 20.2057 17.679 20.4336C17.8157 20.4883 17.9296 20.5293 18.0208 20.5566C18.121 20.584 18.2304 20.5977 18.3489 20.5977C18.44 20.5977 18.5221 20.5885 18.595 20.5703C18.6679 20.5521 18.7681 20.5065 18.8958 20.4336L20.9739 19.2988C21.3111 19.1165 21.58 18.998 21.7805 18.9434C21.9902 18.8887 22.1952 18.8613 22.3958 18.8613C22.6236 18.8613 22.8515 18.9023 23.0793 18.9844C23.3072 19.0664 23.6171 19.2441 24.009 19.5176L27.1946 21.7871C27.9967 22.3613 28.3977 22.9219 28.3977 23.4688C28.3977 23.8151 28.302 24.1979 28.1106 24.6172C27.9192 25.0273 27.5819 25.5013 27.0989 26.0391C26.6067 26.5859 25.9915 27.0234 25.2532 27.3516C24.524 27.6797 23.7265 27.8438 22.8606 27.8438C21.6301 27.8438 20.3222 27.5475 18.9368 26.9551C17.5514 26.3626 16.1568 25.556 14.7532 24.5352C13.3586 23.5052 12.0188 22.3522 10.7336 21.0762Z" fill="white"/>
</svg>
