<svg width="32" height="32" viewBox="0 0 32 32" fill="none" xmlns="http://www.w3.org/2000/svg">
<path d="M25.4094 18.1672C25.4094 18.5036 25.2766 18.8047 25.011 19.0703L16.7102 27.3844C16.4446 27.6677 16.1303 27.8094 15.7672 27.8094C15.4131 27.8094 15.1032 27.6677 14.8375 27.3844L6.55005 19.1102C6.40838 18.9508 6.30656 18.7958 6.24458 18.6453C6.17375 18.4948 6.13833 18.3354 6.13833 18.1672C6.13833 17.813 6.25343 17.5208 6.48364 17.2906C6.71385 17.0516 7.00161 16.932 7.34692 16.932C7.51515 16.932 7.67895 16.9674 7.83833 17.0383C7.9977 17.1003 8.13052 17.1844 8.23677 17.2906L11.0922 20.1062L15.7672 25.2195L20.4422 20.1063L23.311 17.2906C23.4172 17.1844 23.55 17.1003 23.7094 17.0383C23.8599 16.9674 24.0237 16.932 24.2008 16.932C24.5461 16.932 24.8339 17.0516 25.0641 17.2906C25.2943 17.5208 25.4094 17.813 25.4094 18.1672ZM17.029 21.0758L16.7633 25.2859C16.7633 25.587 16.6748 25.8305 16.4977 26.0164C16.3118 26.2023 16.0683 26.2953 15.7672 26.2953C15.475 26.2953 15.236 26.2023 15.05 26.0164C14.8641 25.8305 14.7711 25.587 14.7711 25.2859L14.5188 21.0758L14.5188 5.51016C14.5188 5.14713 14.6383 4.85052 14.8774 4.62031C15.1076 4.38125 15.4042 4.26172 15.7672 4.26172C16.1391 4.26172 16.4446 4.38125 16.6836 4.62031C16.9139 4.85052 17.029 5.14714 17.029 5.51016L17.029 21.0758Z" fill="white"/>
</svg>
