<svg width="32" height="32" viewBox="0 0 32 32" fill="none" xmlns="http://www.w3.org/2000/svg">
<path d="M9.64453 17.793H16.2754C16.5488 17.793 16.7767 17.7018 16.959 17.5195C17.1504 17.3281 17.2461 17.0957 17.2461 16.8223V8.23633C17.2461 7.97201 17.1504 7.7487 16.959 7.56641C16.7767 7.375 16.5488 7.2793 16.2754 7.2793C16.0111 7.2793 15.7832 7.375 15.5918 7.56641C15.4095 7.7487 15.3184 7.97201 15.3184 8.23633V15.8652H9.64453C9.36198 15.8652 9.12956 15.9609 8.94727 16.1523C8.76497 16.3346 8.67383 16.5579 8.67383 16.8223C8.67383 17.0957 8.76497 17.3281 8.94727 17.5195C9.12956 17.7018 9.36198 17.793 9.64453 17.793ZM16.2891 29.5781C14.457 29.5781 12.7389 29.2318 11.1348 28.5391C9.5306 27.8555 8.11784 26.903 6.89648 25.6816C5.67513 24.4603 4.7181 23.0475 4.02539 21.4434C3.3418 19.8301 3 18.112 3 16.2891C3 14.457 3.3418 12.7389 4.02539 11.1348C4.7181 9.5306 5.67513 8.11784 6.89648 6.89648C8.11784 5.67513 9.5306 4.72266 11.1348 4.03906C12.7389 3.34635 14.457 3 16.2891 3C18.1211 3 19.8346 3.34635 21.4297 4.03906C23.0339 4.72266 24.4466 5.67513 25.668 6.89648C26.8893 8.11784 27.8418 9.5306 28.5254 11.1348C29.2181 12.7389 29.5645 14.457 29.5645 16.2891C29.5645 18.112 29.2181 19.8301 28.5254 21.4434C27.8418 23.0475 26.8893 24.4603 25.668 25.6816C24.4466 26.903 23.0339 27.8555 21.4297 28.5391C19.8346 29.2318 18.1211 29.5781 16.2891 29.5781Z" fill="white"/>
</svg>
