<svg width="32" height="32" viewBox="0 0 32 32" fill="none" xmlns="http://www.w3.org/2000/svg">
<path d="M16.2297 28.9512C14.3886 28.9512 12.6659 28.6048 11.0618 27.9121C9.46672 27.2285 8.05851 26.276 6.83716 25.0547C5.6158 23.8333 4.65877 22.4206 3.96606 20.8164C3.28247 19.2122 2.94067 17.4941 2.94067 15.6621C2.94067 13.8301 3.28247 12.112 3.96606 10.5078C4.65877 8.89453 5.6158 7.48177 6.83716 6.26953C8.05851 5.04818 9.46672 4.0957 11.0618 3.41211C12.6659 2.7194 14.3886 2.37305 16.2297 2.37305C18.0618 2.37305 19.7799 2.7194 21.384 3.41211C22.9882 4.0957 24.3964 5.04818 25.6086 6.26953C26.83 7.48177 27.7825 8.89453 28.4661 10.5078C29.1588 12.112 29.5051 13.8301 29.5051 15.6621C29.5051 17.4941 29.1588 19.2122 28.4661 20.8164C27.7825 22.4206 26.83 23.8333 25.6086 25.0547C24.3964 26.276 22.9882 27.2285 21.384 27.9121C19.7799 28.6048 18.0618 28.9512 16.2297 28.9512ZM16.2297 26.5176C17.7245 26.5176 19.1282 26.235 20.4407 25.6699C21.7532 25.1048 22.9062 24.3255 23.8997 23.332C24.9023 22.3385 25.6816 21.1901 26.2375 19.8867C26.7935 18.5742 27.0715 17.166 27.0715 15.6621C27.0715 14.1582 26.7935 12.7546 26.2375 11.4512C25.6816 10.1387 24.9023 8.98568 23.8997 7.99219C22.9062 6.9987 21.7532 6.2194 20.4407 5.6543C19.1282 5.08919 17.7245 4.80664 16.2297 4.80664C14.7258 4.80664 13.3176 5.08919 12.0051 5.6543C10.7017 6.2194 9.54875 6.9987 8.54614 7.99219C7.55265 8.98568 6.77336 10.1387 6.20825 11.4512C5.65226 12.7546 5.37427 14.1582 5.37427 15.6621C5.37427 17.166 5.65226 18.5742 6.20825 19.8867C6.77336 21.1901 7.55265 22.3385 8.54614 23.332C9.54875 24.3255 10.7017 25.1048 12.0051 25.6699C13.3176 26.235 14.7258 26.5176 16.2297 26.5176ZM13.8782 20.7344C13.6594 20.862 13.4407 20.9167 13.2219 20.8984C13.0032 20.8802 12.8209 20.8027 12.675 20.666C12.5383 20.5202 12.47 20.3333 12.47 20.1055V11.2461C12.47 11.0091 12.5429 10.8268 12.6887 10.6992C12.8437 10.5625 13.0305 10.485 13.2493 10.4668C13.468 10.4395 13.6777 10.485 13.8782 10.6035L21.1379 14.9102C21.3385 15.0286 21.4706 15.1882 21.5344 15.3887C21.5982 15.5801 21.5982 15.776 21.5344 15.9766C21.4706 16.168 21.3385 16.3229 21.1379 16.4414L13.8782 20.7344Z" fill="white"/>
</svg>
