<svg width="32" height="32" viewBox="0 0 32 32" fill="none" xmlns="http://www.w3.org/2000/svg">
<path d="M17.9055 6.40002C18.2419 6.40002 18.543 6.53284 18.8086 6.79846L27.1227 15.0992C27.406 15.3649 27.5477 15.6792 27.5477 16.0422C27.5477 16.3964 27.406 16.7063 27.1227 16.9719L18.8484 25.2594C18.6891 25.4011 18.5341 25.5029 18.3836 25.5649C18.2331 25.6357 18.0737 25.6711 17.9055 25.6711C17.5513 25.6711 17.2591 25.556 17.0289 25.3258C16.7898 25.0956 16.6703 24.8078 16.6703 24.4625C16.6703 24.2943 16.7057 24.1305 16.7766 23.9711C16.8385 23.8117 16.9227 23.6789 17.0289 23.5727L19.8445 20.7172L24.9578 16.0422L19.8445 11.3672L17.0289 8.49846C16.9227 8.39221 16.8385 8.2594 16.7766 8.10002C16.7057 7.9495 16.6703 7.7857 16.6703 7.60862C16.6703 7.26331 16.7898 6.97555 17.0289 6.74534C17.2591 6.51513 17.5513 6.40002 17.9055 6.40002ZM20.8141 14.7805L25.0242 15.0461C25.3253 15.0461 25.5688 15.1347 25.7547 15.3117C25.9406 15.4977 26.0336 15.7412 26.0336 16.0422C26.0336 16.3344 25.9406 16.5735 25.7547 16.7594C25.5688 16.9453 25.3253 17.0383 25.0242 17.0383L20.8141 17.2906L5.24844 17.2906C4.88542 17.2906 4.5888 17.1711 4.35859 16.9321C4.11953 16.7018 4 16.4052 4 16.0422C4 15.6703 4.11953 15.3649 4.35859 15.1258C4.5888 14.8956 4.88542 14.7805 5.24844 14.7805L20.8141 14.7805Z" fill="white"/>
</svg>
